<svg width="100" height="100" viewBox="0 0 100 100" fill="none" xmlns="http://www.w3.org/2000/svg">
<rect x="0.5" y="0.5" width="99" height="99" rx="19.5" fill="url(#paint0_linear_15_111)"/>
<rect x="0.5" y="0.5" width="99" height="99" rx="19.5" stroke="white"/>
<g filter="url(#filter0_d_15_111)">
<path d="M17.0029 59.5127C15.5674 59.5127 14.2617 59.1914 13.0859 58.5488C11.9102 57.8926 11.1582 56.8604 10.8301 55.4521C10.8027 55.3154 10.7891 55.2266 10.7891 55.1855C10.7891 54.8164 10.9189 54.502 11.1787 54.2422C11.4385 53.9688 11.7256 53.832 12.04 53.832C12.1904 53.832 12.3545 53.8594 12.5322 53.9141C12.7236 53.9688 12.8672 54.0918 12.9629 54.2832C13.3184 54.9258 13.9268 55.4453 14.7881 55.8418C15.6631 56.2246 16.5176 56.416 17.3516 56.416C18.2402 56.416 19.0127 56.2451 19.6689 55.9033C20.3389 55.5615 20.6738 55.001 20.6738 54.2217C20.6738 53.2646 20.4004 52.417 19.8535 51.6787C19.3203 50.9404 18.6436 50.2773 17.8232 49.6895C17.0166 49.0879 16.2031 48.5342 15.3828 48.0283C15.3145 47.9873 15.2119 47.8711 15.0752 47.6797C14.9385 47.4746 14.8701 47.2695 14.8701 47.0645C14.8701 46.9004 14.9111 46.7705 14.9932 46.6748C15.4307 46.0869 15.9912 45.5127 16.6748 44.9521C17.3584 44.3916 18.1104 44.1113 18.9307 44.1113C19.5322 44.1113 20.0244 44.2617 20.4072 44.5625C20.8037 44.8496 21.002 45.1367 21.002 45.4238C21.002 45.8066 20.8242 46.1689 20.4688 46.5107C20.1133 46.8389 19.7441 47.1533 19.3613 47.4541C20.9883 48.3018 22.2803 49.3818 23.2373 50.6943C24.1943 51.9932 24.6729 53.2646 24.6729 54.5088C24.6729 55.5615 24.29 56.4639 23.5244 57.2158C22.7725 57.9541 21.8086 58.5215 20.6328 58.918C19.4707 59.3145 18.2607 59.5127 17.0029 59.5127ZM27.667 59.5127C26.5869 59.5127 25.835 59.2461 25.4111 58.7129C24.9873 58.1797 24.7754 57.5234 24.7754 56.7441C24.7754 56.0605 24.8916 55.3496 25.124 54.6113C25.3564 53.873 25.6162 53.21 25.9033 52.6221L28.3027 47.7002H27.4209C26.6553 47.7002 26.1289 47.5771 25.8418 47.3311C25.5547 47.085 25.4111 46.8047 25.4111 46.4902C25.4111 46.1758 25.5889 45.8203 25.9443 45.4238C26.2998 45.0137 26.7852 44.8086 27.4004 44.8086H29.6152L33.9424 36.2158C34.2158 35.6963 34.5508 35.3271 34.9473 35.1084C35.3574 34.876 35.7812 34.7598 36.2188 34.7598C36.6289 34.7598 37.0049 34.8691 37.3467 35.0879C37.6885 35.3066 37.8594 35.6689 37.8594 36.1748C37.8594 36.4346 37.7979 36.7012 37.6748 36.9746C37.5654 37.2344 37.415 37.542 37.2236 37.8975C37.0049 38.3076 36.7109 38.8613 36.3418 39.5586C35.9727 40.2422 35.5146 41.0693 34.9678 42.04L33.4912 44.8086H40.1768C40.833 44.8086 41.3662 44.8975 41.7764 45.0752C42.2002 45.2393 42.4121 45.6152 42.4121 46.2031C42.4121 46.5039 42.3027 46.7979 42.084 47.085C41.8652 47.3721 41.3936 47.543 40.6689 47.5977H32.1377L30.7021 50.4688L29.4307 53.0732C29.2666 53.4014 29.1025 53.7842 28.9385 54.2217C28.7881 54.6455 28.7129 55.0215 28.7129 55.3496C28.7129 55.7598 28.9043 55.9648 29.2871 55.9648C29.7246 55.9648 30.3125 55.7803 31.0508 55.4111C31.7891 55.042 32.5684 54.5908 33.3887 54.0576C34.2227 53.5244 35.0225 52.9707 35.7881 52.3965C36.5537 51.8086 37.2578 51.2412 37.9004 50.6943C38.1328 50.5439 38.3379 50.4688 38.5156 50.4688C38.8164 50.4688 39.042 50.6328 39.1924 50.9609C39.3428 51.2891 39.3564 51.6855 39.2334 52.1504C39.124 52.6152 38.8027 53.0596 38.2695 53.4834C37.3809 54.29 36.4785 55.0557 35.5625 55.7803C34.6602 56.4912 33.7646 57.127 32.876 57.6875C31.9736 58.2344 31.085 58.6719 30.21 59C29.335 59.3418 28.4873 59.5127 27.667 59.5127ZM40.0537 59.5127C39.5889 59.5127 39.0352 59.3828 38.3926 59.123C37.75 58.8633 37.1826 58.4326 36.6904 57.8311C36.2119 57.2295 35.9727 56.4229 35.9727 55.4111C35.9727 54.5635 36.1641 53.5039 36.5469 52.2324C36.9297 50.9609 37.5312 49.71 38.3516 48.4795C39.1719 47.2217 40.2178 46.1758 41.4893 45.3418C42.7744 44.5078 44.2578 44.0908 45.9395 44.0908C46.541 44.0908 47.0674 44.166 47.5186 44.3164C47.9697 44.4668 48.3525 44.6309 48.667 44.8086C48.8447 44.918 49.0088 45.0342 49.1592 45.1572C49.3232 45.2666 49.4736 45.3896 49.6104 45.5264L50.3281 45.1777C50.5332 45.082 50.7451 45 50.9639 44.9316C51.1963 44.8496 51.3945 44.8086 51.5586 44.8086C52.0781 44.8086 52.502 44.9521 52.8301 45.2393C53.1582 45.5264 53.3223 45.8408 53.3223 46.1826C53.3223 46.292 53.3154 46.3672 53.3018 46.4082C53.2061 46.791 53.0283 47.3174 52.7686 47.9873C52.5225 48.6572 52.2559 49.4023 51.9688 50.2227C51.6816 51.0156 51.4355 51.7812 51.2305 52.5195C51.0391 53.2578 50.9434 53.8662 50.9434 54.3447C50.9434 54.7549 51.0117 55.0967 51.1484 55.3701C51.2852 55.6299 51.5176 55.7598 51.8457 55.7598C52.2422 55.7598 52.7754 55.5342 53.4453 55.083C54.1152 54.6182 54.8057 54.0713 55.5166 53.4424C55.8994 53.1006 56.2959 52.7383 56.7061 52.3555C57.1162 51.959 57.5332 51.542 57.957 51.1045C58.1758 50.9268 58.3877 50.8379 58.5928 50.8379C58.8662 50.8379 59.0918 50.9746 59.2695 51.248C59.4609 51.5078 59.5566 51.8018 59.5566 52.1299C59.5566 52.5127 59.4268 52.834 59.167 53.0938C58.6201 53.5996 58.0596 54.1396 57.4854 54.7139C56.9111 55.2881 56.1182 55.9922 55.1064 56.8262C54.2041 57.5645 53.2744 58.2002 52.3174 58.7334C51.3604 59.2529 50.499 59.5127 49.7334 59.5127C48.7764 59.5127 48.0791 59.1436 47.6416 58.4053C47.2041 57.6533 46.9854 56.8535 46.9854 56.0059C46.9854 55.3906 47.0742 54.8438 47.252 54.3652C46.6914 55.1172 46.0283 55.8965 45.2627 56.7031C44.4971 57.4961 43.6699 58.166 42.7812 58.7129C41.8926 59.2461 40.9834 59.5127 40.0537 59.5127ZM41.6943 55.9033C42.1318 55.9033 42.6787 55.623 43.335 55.0625C44.0049 54.502 44.6475 53.8457 45.2627 53.0938C45.9463 52.2734 46.4863 51.5283 46.8828 50.8584C47.2793 50.1885 47.4775 49.7373 47.4775 49.5049C47.4775 48.9854 47.1768 48.5752 46.5752 48.2744C45.9736 47.96 45.4336 47.8027 44.9551 47.8027C44.1074 47.8027 43.3008 48.0762 42.5352 48.623C41.7832 49.1699 41.168 49.874 40.6895 50.7354C40.2109 51.583 39.9717 52.4648 39.9717 53.3809C39.9717 53.9141 40.0674 54.4678 40.2588 55.042C40.4639 55.6162 40.9424 55.9033 41.6943 55.9033ZM60.0898 71.1816C59.5566 71.1816 59.1328 70.9971 58.8184 70.6279C58.5176 70.2588 58.3672 69.8145 58.3672 69.2949C58.3672 68.748 58.4971 68.1055 58.7568 67.3672C59.0303 66.6426 59.3994 65.8633 59.8643 65.0293C60.8076 63.3477 62.1201 61.5293 63.8018 59.5742L66.3447 56.334C65.292 57.3047 64.2939 57.9951 63.3506 58.4053C62.4072 58.8018 61.6211 59 60.9922 59C59.8984 59 58.9893 58.5215 58.2646 57.5645C57.5537 56.6074 57.1982 55.4043 57.1982 53.9551C57.1982 52.4512 57.4854 51.0908 58.0596 49.874C58.6475 48.6572 59.3994 47.6182 60.3154 46.7568C61.2178 45.9092 62.2158 45.2529 63.3096 44.7881C64.417 44.3232 65.4971 44.0908 66.5498 44.0908C67.1514 44.0908 67.6777 44.166 68.1289 44.3164C68.5801 44.4668 68.9629 44.6309 69.2773 44.8086C69.4551 44.918 69.6191 45.0342 69.7695 45.1572C69.9336 45.2666 70.084 45.3896 70.2207 45.5264C70.4395 45.376 70.6445 45.2598 70.8359 45.1777C71.0273 45.082 71.2393 45 71.4717 44.9316C71.7041 44.8496 71.9365 44.8086 72.1689 44.8086C72.7705 44.8086 73.2354 44.9316 73.5635 45.1777C73.8916 45.4238 74.0557 45.7178 74.0557 46.0596C74.0557 46.2373 74.0078 46.415 73.9121 46.5928L69.1133 55.6777L69.5029 55.3291C71.1162 54.3857 72.4424 53.6475 73.4814 53.1143C74.5205 52.5674 75.3477 52.1641 75.9629 51.9043C76.4414 51.6992 76.8379 51.5557 77.1523 51.4736C77.4668 51.3779 77.6787 51.3301 77.7881 51.3301C78.1025 51.3301 78.3418 51.4531 78.5059 51.6992C78.6836 51.9316 78.7725 52.2256 78.7725 52.5811C78.7725 52.9775 78.6562 53.3809 78.4238 53.791C78.2051 54.2012 77.8633 54.4951 77.3984 54.6729C76.5918 55.083 75.6211 55.541 74.4863 56.0469C73.3652 56.5391 72.1895 57.1201 70.959 57.79C69.7422 58.4463 68.5869 59.2324 67.4932 60.1484L63.5146 67.3467C62.8857 68.8506 62.3252 69.876 61.833 70.4229C61.3818 70.9287 60.8008 71.1816 60.0898 71.1816ZM62.5098 55.5547C62.9336 55.5547 63.4668 55.2949 64.1094 54.7754C64.752 54.2422 65.3672 53.6201 65.9551 52.9092C66.5566 52.1982 67.0625 51.5215 67.4727 50.8789C67.8828 50.2363 68.0879 49.7783 68.0879 49.5049C68.0879 48.9033 67.8008 48.4521 67.2266 48.1514C66.666 47.8506 66.1807 47.7002 65.7705 47.7002C64.9092 47.7002 64.0957 47.9736 63.3301 48.5205C62.5781 49.0537 61.9629 49.7578 61.4844 50.6328C61.0195 51.4941 60.7871 52.4102 60.7871 53.3809C60.7871 53.8457 60.8828 54.3242 61.0742 54.8164C61.2656 55.3086 61.7441 55.5547 62.5098 55.5547ZM80.0029 59.5127C78.9092 59.5127 77.9727 59.2461 77.1934 58.7129C76.4277 58.166 75.8398 57.4551 75.4297 56.5801C75.0332 55.6914 74.835 54.7412 74.835 53.7295C74.835 52.8408 75.0879 51.8496 75.5938 50.7559C76.1133 49.6484 76.8516 48.5889 77.8086 47.5771C78.7656 46.5654 79.9072 45.7314 81.2334 45.0752C82.5732 44.4053 84.0293 44.0703 85.6016 44.0703C86.7363 44.0703 87.584 44.3438 88.1445 44.8906C88.7051 45.4375 88.9854 46.1963 88.9854 47.167C88.9854 47.7412 88.835 48.3428 88.5342 48.9717C88.2334 49.6006 87.7139 50.2363 86.9756 50.8789C86.2373 51.5352 85.2461 52.2051 84.002 52.8887C82.7715 53.5586 81.2266 54.2354 79.3672 54.9189C79.5176 55.7666 80.2012 56.1904 81.418 56.1904C82.3613 56.1904 83.3799 55.999 84.4736 55.6162C85.5674 55.2197 86.6201 54.7686 87.6318 54.2627C88.6436 53.7705 89.5117 53.3057 90.2363 52.8682C90.9609 52.4307 91.3916 52.1846 91.5283 52.1299C91.6514 52.0479 91.7607 52 91.8564 51.9863C91.9658 51.9727 92.0615 51.9658 92.1436 51.9658C92.4717 51.9658 92.6973 52.0957 92.8203 52.3555C92.957 52.6016 93.0254 52.8066 93.0254 52.9707C93.0254 53.0938 93.0117 53.2441 92.9844 53.4219C92.957 53.5859 92.8545 53.7773 92.6768 53.9961C92.499 54.1738 91.9795 54.5635 91.1182 55.165C90.2568 55.7666 89.334 56.3477 88.3496 56.9082C87.1465 57.5781 85.8066 58.1797 84.3301 58.7129C82.8535 59.2461 81.4111 59.5127 80.0029 59.5127ZM79.0596 52.5605C79.9482 52.0957 80.8506 51.5557 81.7666 50.9404C82.6963 50.3115 83.4004 49.8535 83.8789 49.5664C84.5215 49.1562 84.9453 48.7939 85.1504 48.4795C85.3828 48.1377 85.499 47.8506 85.499 47.6182C85.499 47.4131 85.4307 47.249 85.2939 47.126C85.1709 47.0029 85.0273 46.9277 84.8633 46.9004L84.6787 46.8799H84.4941C83.7422 46.8799 83.0449 47.0986 82.4023 47.5361C81.7734 47.96 81.2402 48.4932 80.8027 49.1357C80.3379 49.8057 79.9619 50.4346 79.6748 51.0225C79.4014 51.6104 79.1963 52.123 79.0596 52.5605Z" fill="#181818"/>
</g>
<defs>
<filter id="filter0_d_15_111" x="6.78906" y="34.7598" width="90.2363" height="44.4219" filterUnits="userSpaceOnUse" color-interpolation-filters="sRGB">
<feFlood flood-opacity="0" result="BackgroundImageFix"/>
<feColorMatrix in="SourceAlpha" type="matrix" values="0 0 0 0 0 0 0 0 0 0 0 0 0 0 0 0 0 0 127 0" result="hardAlpha"/>
<feOffset dy="4"/>
<feGaussianBlur stdDeviation="2"/>
<feComposite in2="hardAlpha" operator="out"/>
<feColorMatrix type="matrix" values="0 0 0 0 0 0 0 0 0 0 0 0 0 0 0 0 0 0 0.25 0"/>
<feBlend mode="normal" in2="BackgroundImageFix" result="effect1_dropShadow_15_111"/>
<feBlend mode="normal" in="SourceGraphic" in2="effect1_dropShadow_15_111" result="shape"/>
</filter>
<linearGradient id="paint0_linear_15_111" x1="27" y1="24.5" x2="68" y2="69" gradientUnits="userSpaceOnUse">
<stop stop-color="#FAFAFA"/>
<stop offset="1" stop-color="#C3C3C3"/>
</linearGradient>
</defs>
</svg>
