<svg width="100" height="100" viewBox="0 0 100 100" fill="none" xmlns="http://www.w3.org/2000/svg">
<rect x="0.5" y="0.5" width="99" height="99" rx="19.5" fill="url(#paint0_linear_14_80)"/>
<rect x="0.5" y="0.5" width="99" height="99" rx="19.5" stroke="white"/>
<g filter="url(#filter0_d_14_80)">
<path d="M13.91 42.1941C17.2636 39.6773 43.8604 38.7485 45.4697 42.0519C47.0791 45.3553 45.9779 54.9926 42.2071 59.4438C38.4362 63.8949 20.6109 62.1177 16.084 59.8761C11.5571 57.6344 10.5563 44.7109 13.91 42.1941Z" fill="#1F1F1F"/>
<path d="M86.9328 42.1941C83.5791 39.6773 56.9824 38.7485 55.373 42.0519C53.7637 45.3553 54.8648 54.9926 58.6357 59.4438C62.4066 63.8949 80.2319 62.1177 84.7588 59.8761C89.2857 57.6344 90.2864 44.7109 86.9328 42.1941Z" fill="#1F1F1F"/>
<path d="M45.3667 44.8224C45.3667 44.8224 47.3885 43.8527 50.4213 43.8527C53.4541 43.8527 55.4759 44.8224 55.4759 44.8224V46.762C55.4759 46.762 52.9486 45.7922 50.4213 45.7922C47.894 45.7922 45.3667 46.762 45.3667 46.762V44.8224Z" fill="#1F1F1F"/>
</g>
<defs>
<filter id="filter0_d_14_80" x="7.92273" y="39.9222" width="84.9973" height="30.2721" filterUnits="userSpaceOnUse" color-interpolation-filters="sRGB">
<feFlood flood-opacity="0" result="BackgroundImageFix"/>
<feColorMatrix in="SourceAlpha" type="matrix" values="0 0 0 0 0 0 0 0 0 0 0 0 0 0 0 0 0 0 127 0" result="hardAlpha"/>
<feOffset dy="4"/>
<feGaussianBlur stdDeviation="2"/>
<feComposite in2="hardAlpha" operator="out"/>
<feColorMatrix type="matrix" values="0 0 0 0 0 0 0 0 0 0 0 0 0 0 0 0 0 0 0.25 0"/>
<feBlend mode="normal" in2="BackgroundImageFix" result="effect1_dropShadow_14_80"/>
<feBlend mode="normal" in="SourceGraphic" in2="effect1_dropShadow_14_80" result="shape"/>
</filter>
<linearGradient id="paint0_linear_14_80" x1="27" y1="24.5" x2="68" y2="69" gradientUnits="userSpaceOnUse">
<stop stop-color="#FAFAFA"/>
<stop offset="1" stop-color="#C3C3C3"/>
</linearGradient>
</defs>
</svg>
