<svg xmlns="http://www.w3.org/2000/svg" fill="none" viewBox="0 0 48 48"><g id="intellectual--disability-intellectual"><path id="Union" stroke="#7b8cc7" stroke-linecap="round" stroke-linejoin="round" d="M39.313 20.286C39.197 10.719 31.323 3 21.627 3 11.86 3 3.94 10.835 3.94 20.5c0 5.725 2.78 10.808 7.075 14.001v7.163c0 1.294 0.837 2.425 2.11 2.658 1.749 0.32 4.583 0.678 8.503 0.678s6.753 -0.358 8.501 -0.678c1.274 -0.233 2.11 -1.364 2.11 -2.659v-3.225l2.8 0.346a3 3 0 0 0 3.358 -2.725l0.566 -6.718c1.671 -0.404 2.903 -0.988 3.734 -1.488 0.827 -0.498 0.926 -1.56 0.363 -2.344l-3.747 -5.223Z" stroke-width="3"></path><path id="Ellipse 451" stroke="#7b8cc7" stroke-linecap="round" stroke-linejoin="round" d="M15.658 10.454c-4.665 2.693 -6.753 8.133 -5.402 13.096 0.435 1.6 2.316 2.09 3.75 1.262l14.912 -8.61c1.434 -0.828 1.95 -2.701 0.782 -3.878 -3.622 -3.652 -9.378 -4.563 -14.042 -1.87Z" stroke-width="3"></path></g></svg>