<svg width="54" height="54" viewBox="0 0 54 54" fill="none" xmlns="http://www.w3.org/2000/svg">
<g id="binoculars icon large">
<path id="Intersect" d="M21.9257 25.0593C21.9257 29.8508 22.066 36.4226 22.0259 41.7875M21.1758 12.6536C21.1357 11.9038 21.0395 10.8893 20.9272 9.77867C20.5502 6.08981 17.8275 2.6656 14.1504 2.16038C13.4464 2.05841 12.7364 2.00482 12.0251 2C11.3138 2.00482 10.6038 2.05841 9.89983 2.16038C6.22672 2.6656 3.60823 6.09382 3.39971 9.79872C2.81827 20.0393 1.9441 31.7634 2.02029 41.7875" stroke="#7B8CC7" stroke-width="3.5" stroke-linecap="round" stroke-linejoin="round"/>
<path id="Ellipse 3" d="M2 41.9762C2 43.2926 2.2593 44.5961 2.7631 45.8122C3.26689 47.0284 4.00532 48.1335 4.93621 49.0643C5.86711 49.9951 6.97224 50.7335 8.18851 51.2372C9.40479 51.741 10.7084 52.0003 12.0249 52.0003C13.3413 52.0003 14.6449 51.741 15.8612 51.2372C17.0775 50.7335 18.1826 49.9951 19.1135 49.0643C20.0444 48.1335 20.7828 47.0284 21.2866 45.8122C21.7904 44.5961 22.0497 43.2926 22.0497 41.9762C22.0497 39.3177 20.9935 36.768 19.1135 34.8881C17.2335 33.0083 14.6836 31.9521 12.0249 31.9521C9.3661 31.9521 6.81624 33.0083 4.93621 34.8881C3.05619 36.768 2 39.3177 2 41.9762Z" stroke="#7B8CC7" stroke-width="3.5" stroke-linecap="round" stroke-linejoin="round"/>
<path id="Intersect_2" d="M32.0745 25.0592C32.0745 29.8788 31.9342 36.4947 31.9783 41.8796M32.8284 12.6535C32.8685 11.9037 32.9607 10.8892 33.073 9.77856C33.45 6.08971 36.1727 2.66549 39.8498 2.16028C40.5538 2.05965 41.2639 2.0074 41.9751 2.00391C42.6889 2.00391 43.3986 2.06405 44.1004 2.16028C47.7735 2.66549 50.392 6.09372 50.6005 9.79861C51.1819 20.0673 52.0601 31.8355 51.9799 41.8756" stroke="#7B8CC7" stroke-width="3.5" stroke-linecap="round" stroke-linejoin="round"/>
<path id="Ellipse 3_2" d="M52 41.9762C52 44.6348 50.9438 47.1844 49.0638 49.0643C47.1838 50.9442 44.6339 52.0003 41.9751 52.0003C39.3164 52.0003 36.7665 50.9442 34.8865 49.0643C33.0065 47.1844 31.9503 44.6348 31.9503 41.9762C31.9503 39.3177 33.0065 36.768 34.8865 34.8881C36.7665 33.0083 39.3164 31.9521 41.9751 31.9521C44.6339 31.9521 47.1838 33.0083 49.0638 34.8881C50.9438 36.768 52 39.3177 52 41.9762Z" stroke="#7B8CC7" stroke-width="3.5" stroke-linecap="round" stroke-linejoin="round"/>
<path id="Intersect_3" d="M37.0112 15.9575C30.1702 11.3866 23.7062 11.3866 16.8652 15.9575" stroke="#7B8CC7" stroke-width="3.5" stroke-linecap="round" stroke-linejoin="round"/>
</g>
</svg>
