<svg width="54" height="54" viewBox="0 0 54 54" fill="none" xmlns="http://www.w3.org/2000/svg">
<g id="Devils icon large">
<path id="Union" d="M35.6668 42.8171C44.6162 42.8171 49.4213 36.6458 51.063 30.6308C51.8358 27.8043 52 25.1342 52 22.2501C52 11.3681 42.47 2.61713 31.8868 2.12343C30.2611 2.04526 28.6234 2 26.9736 2C25.3239 2 23.6862 2.04526 22.0605 2.12343C11.4813 2.61713 3.04041 10.718 2.19953 22.2501C1.66697 29.6639 2.19953 37.1683 3.80923 45.0388C4.60206 48.939 6.26782 51.4528 8.95064 51.4528C10.1599 51.4528 12.0099 47.462 13.2352 47.5731C14.4925 47.6842 16.7028 52 19.4817 52C22.2687 52 24.6792 47.9228 26.0086 47.8529C28.0508 47.7418 29.8407 51.4528 31.3222 51.4528C33.8289 51.4528 35.2744 48.0257 35.6668 42.8171Z" stroke="#7B8CC7" stroke-width="3.5" stroke-linecap="round" stroke-linejoin="round"/>
<path id="Vector 62" d="M25.8291 22.2129V26.7138" stroke="#7B8CC7" stroke-width="3.5" stroke-linecap="round" stroke-linejoin="round"/>
<path id="Vector 63" d="M12.9385 22.2129V26.7138" stroke="#7B8CC7" stroke-width="3.5" stroke-linecap="round" stroke-linejoin="round"/>
</g>
</svg>
