<svg width="54" height="54" viewBox="0 0 54 54" fill="none" xmlns="http://www.w3.org/2000/svg">
<g id="dial icon large">
<path id="Vector 107" d="M48.915 52.0002C50.8031 48.8593 51.9992 45.775 51.9992 41.108C51.9992 31.7742 43.0505 29.4246 36.582 28.7464V18.5486C36.582 15.541 34.1658 13.1025 31.1895 13.1025C29.758 13.1025 28.3849 13.6762 27.3723 14.6974C26.3596 15.7186 25.7902 17.1039 25.7891 18.5486V34.8868L24.097 35.8638C23.0293 36.4799 22.1168 37.336 21.4302 38.3657C20.7436 39.3954 20.3015 40.571 20.1382 41.8012C19.9749 43.0313 20.0948 44.2829 20.4886 45.4587C20.8824 46.6345 21.5395 47.7028 22.4088 48.5808L25.7931 52.0002" stroke="#7B8CC7" stroke-width="3.5" stroke-linecap="round" stroke-linejoin="round"/>
<path id="Rectangle 48" d="M8.00048 2H12.0008C12.0008 2 18.0013 2 18.0013 8.05568C18.0013 8.05568 18.0013 14.1114 12.0008 14.1114H8.00048C8.00048 14.1114 2 14.1114 2 8.05568C2 8.05568 2 2 8.00048 2Z" stroke="#7B8CC7" stroke-width="3.5" stroke-linecap="round" stroke-linejoin="round"/>
<path id="Rectangle 49" d="M43.2035 11.0835C43.7303 10.1627 44.0076 9.11803 44.0074 8.05471C44.0073 6.99139 43.7297 5.94685 43.2025 5.02616C42.6754 4.10546 41.9174 3.34107 41.0047 2.80985C40.092 2.27863 39.0567 1.99932 38.0031 2H34.0028C32.3106 2 30.7825 2.7065 29.6904 3.84497" stroke="#7B8CC7" stroke-width="3.5" stroke-linecap="round" stroke-linejoin="round"/>
<path id="Rectangle 50" d="M18.0013 30.2598C18.0013 28.6537 17.3691 27.1134 16.2438 25.9778C15.1185 24.8421 13.5922 24.2041 12.0008 24.2041H8.00048C6.40905 24.2041 4.88281 24.8421 3.7575 25.9778C2.63219 27.1134 2 28.6537 2 30.2598C2 31.8658 2.63219 33.4061 3.7575 34.5418C4.88281 35.6775 6.40905 36.3155 8.00048 36.3155H12.0008" stroke="#7B8CC7" stroke-width="3.5" stroke-linecap="round" stroke-linejoin="round"/>
</g>
</svg>
