<svg xmlns="http://www.w3.org/2000/svg" viewBox="0 0 48 48" version="1.1">
	<path d="M21.96 2.815872C21.775199999999998 2.823024 21.2892 2.8519200000000002 20.88 2.88C17.10672 3.1392 14.371872 3.8817600000000003 12.353904 5.194896C10.371984 6.484608000000001 8.983152 8.448384 8.487552 10.661712C8.389632 11.099136 8.37624 11.283168 8.378112000000002 12.168000000000001C8.379888 13.02384 8.396064 13.247136000000001 8.4852 13.647312000000001C8.861616 15.3372 9.578784 16.738272000000002 10.996656 18.553776C11.51064 19.211904 12.150672 19.928352 13.439328 21.288C14.039807999999999 21.9216 14.717136000000002 22.652592 14.944512 22.912368C15.331104000000002 23.354112 15.744 23.915856 15.744 24C15.744 24.084144 15.331104000000002 24.645888000000003 14.944512 25.087632C14.717136000000002 25.347408 14.040432000000001 26.0784 13.440719999999999 26.712C12.1188 28.108512000000005 11.670864 28.60752 11.09232 29.327904000000004C9.684288 31.0812 8.840736 32.703408 8.494128 34.324368C8.333184000000001 35.076912 8.309232 36.267696 8.439648 37.032000000000004C8.631744000000001 38.157792 9.086400000000001 39.262368 9.793104 40.32C10.277664 41.045184 11.249424 42.045456 11.934096 42.523776000000005C13.411008 43.555584 15.115295999999999 44.23944 17.256 44.6592C19.1256 45.025776 20.653776 45.161472 23.352 45.200352C29.968752000000002 45.295728 33.872304 44.43696 36.54672 42.297551999999996C38.036352 41.105952 39.118608 39.329664 39.536352 37.390848C39.672912000000004 36.757056000000006 39.659712 35.193456 39.512016 34.512C39.063024 32.439840000000004 37.905936 30.464592 35.719152 28.037136C35.443104000000005 27.730704 34.834416 27.0696 34.366512 26.568C32.851632 24.943968 32.256 24.219264 32.256 24C32.256 23.780736 32.851632 23.056032000000002 34.366512 21.432000000000002C36.927648000000005 18.686400000000003 37.900368 17.418816 38.712816000000004 15.768C39.31104 14.552544000000001 39.592464 13.481328 39.633792 12.262751999999999C39.673824 11.082048 39.526512000000004 10.243295999999999 39.086064 9.144C38.217552 6.976464 36.576768 5.346480000000001 34.213824 4.303776C32.294832 3.45696 29.933088 3.001008 26.592000000000002 2.832192C25.765344000000002 2.790432 22.876608 2.780256 21.96 2.815872M21.80712 6.338640000000001C19.414848 6.456672 17.333184 6.80808 15.936 7.329840000000001C15.449760000000001 7.511424 14.657471999999999 7.893599999999999 14.332991999999999 8.103072C12.898560000000002 9.029232 11.96688 10.480080000000001 11.870928000000001 11.93712C11.785295999999999 13.237584000000002 12.424512 14.718 13.825536 16.464C14.338992 17.103888 14.727456 17.534352 16.075872 18.957696C17.91024 20.89392 18.47448 21.600144 18.888384 22.47792C19.171295999999998 23.077968000000002 19.261968 23.447328 19.261968 24C19.261968 24.552672 19.171295999999998 24.922031999999998 18.888384 25.522080000000003C18.47448 26.399856 17.91024 27.106080000000002 16.075872 29.042304C13.805807999999999 31.438512000000003 13.058976000000001 32.383296 12.454272 33.624C11.995968 34.564368 11.823648 35.279712 11.871024 36.045888000000005C11.961648 37.512912 12.890208 38.965392 14.332991999999999 39.896928C14.657471999999999 40.1064 15.449760000000001 40.488575999999995 15.936 40.670159999999996C18.127776 41.488608 21.947232 41.858496 26.184 41.66251200000001C30.628848 41.456928000000005 33.209568 40.716768 34.705872 39.218399999999995C35.433552 38.489712000000004 35.882736 37.652016 36.091776 36.633648C36.261120000000005 35.808816 36.024048 34.67352 35.452560000000005 33.572736C34.827744 32.369232000000004 33.938016000000005 31.248816 31.772928000000004 28.939296000000002C30.023904 27.073584 29.393328 26.243088 29.006496000000002 25.296C28.799472 24.789024 28.735248 24.473136 28.738272000000002 23.976C28.741152 23.502528 28.825824 23.11512 29.028527999999998 22.648272000000002C29.463552 21.646176 29.999328 20.957184 32.06448 18.744C33.598031999999996 17.100576 34.276896 16.289328 34.911984 15.341327999999999C35.768928 14.062032 36.201696 12.783168 36.129888 11.742048C36.0576 10.69344 35.539488 9.616368000000001 34.705872 8.7816C33.209568 7.283232000000001 30.628848 6.5430719999999996 26.184 6.3374880000000005C25.008528 6.283104 22.921584000000003 6.28368 21.80712 6.338640000000001M22.099872 12.098256C21.191136 12.150048 20.012736 12.277296 19.223952 12.408816C17.938704 12.623088 16.42224 13.000896 16.016351999999998 13.208015999999999C15.713472 13.362528000000001 15.431856000000002 13.65864 15.259344 14.004096C15.111792000000001 14.299439999999999 15.097488 14.366208 15.096768 14.761008C15.096096000000001 15.153072000000002 15.110591999999999 15.223392 15.250512 15.505008000000002C15.335472 15.676032000000001 15.614544 16.0644 15.870624 16.368000000000002C18.586512 19.587888 20.801136000000003 21.341856 22.848 21.894144C23.428176 22.050672000000002 24.562656 22.05336 25.130448 21.899520000000003C26.595983999999998 21.502464 28.173071999999998 20.474928 29.897472 18.793488C31.049183999999997 17.67048 32.491727999999995 16.0104 32.735088 15.528C33.146544 14.71248 32.826144 13.667807999999999 32.03304 13.23864C31.412448 12.90288 29.10792 12.39984 27.36 12.21864C25.798944 12.056784 23.6784 12.008256 22.099872 12.098256M22.296 15.604272C21.464448 15.65136 20.197344 15.78888 20.145408000000003 15.837696000000001C20.124192 15.857616000000002 20.386848 16.133328 20.729136 16.450368C21.834 17.473872 22.431888 17.920224 23.184 18.283104C23.6016 18.484608 23.670288 18.503136 24 18.5028C24.321792000000002 18.502464 24.403728 18.481584 24.771984 18.306048C25.512144000000003 17.953344 26.179536000000002 17.45976 27.230832 16.487472C27.595392 16.15032 27.876192000000003 15.858144 27.854832 15.838128000000001C27.798575999999997 15.785471999999999 26.559168000000003 15.656016 25.584 15.600864C24.629568 15.546912 23.284416 15.548304 22.296 15.604272M23.16264 26.957472000000003C21.31848 27.290352 19.224768 28.638144000000004 16.795632 31.056C16.278432000000002 31.570800000000002 15.744 32.1432 15.607968 32.328C14.219327999999999 34.214688 14.43312 36.702672 16.106544 38.130528C16.531536 38.493120000000005 17.249712000000002 38.868 17.814287999999998 39.021936000000004C18.301776 39.154848 19.680816 39.384575999999996 20.544 39.476639999999996C21.754608 39.605712000000004 22.592496 39.647040000000004 24 39.647040000000004C25.937568 39.647040000000004 27.342816000000003 39.538560000000004 28.985712000000003 39.262128000000004C30.069744 39.079679999999996 30.447551999999998 38.973264 31.038 38.68392C33.395136 37.528800000000004 34.030272000000004 34.546608 32.391696 32.328C32.085264 31.913088000000002 30.55272 30.37872 29.808 29.74128C27.196944 27.506256 25.066464 26.613791999999997 23.16264 26.957472000000003M23.52 30.475104C22.502736000000002 30.753216000000002 21.107568 31.753824 19.40448 33.426624000000004C18.326784 34.485216 18.156096 34.722576 18.205872 35.093808C18.234336 35.30592 18.38448 35.502048 18.576 35.577360000000006C18.793632 35.662895999999996 19.851167999999998 35.853024 20.648208 35.94984C22.801392 36.211439999999996 25.198608 36.211439999999996 27.351792 35.94984C28.148832 35.853024 29.206368 35.662895999999996 29.424 35.577360000000006C29.61552 35.502048 29.765664000000005 35.30592 29.794128 35.093808C29.842703999999998 34.73136 29.671536000000003 34.48872 28.669919999999998 33.500304C28.173888 33.010752000000004 27.60624 32.472528 27.40848 32.304288C27.001296000000004 31.957728 26.111568 31.294128 25.752 31.06872C25.158912 30.697008 24.333744 30.379824000000003 23.97792 30.386879999999998C23.897664 30.388464 23.6916 30.42816 23.52 30.475104" stroke="none" fill="#7b8cc7" fill-rule="evenodd"></path>
</svg>