<svg xmlns="http://www.w3.org/2000/svg" fill="none" viewBox="0 0 48 48"><g id="help-chat-1--bubble-help-mark-message-query-question-speech-square"><path id="Union" stroke="#7b8cc7" stroke-linecap="round" stroke-linejoin="round" d="M8.227 36.941c-2.544 -0.17 -4.54 -2.055 -4.769 -4.595 -0.24 -2.665 -0.47 -6.656 -0.47 -12.154s0.23 -9.49 0.47 -12.154c0.229 -2.54 2.225 -4.426 4.77 -4.595C11.455 3.228 16.615 3 24 3c7.384 0 12.544 0.228 15.773 0.443 2.545 0.17 4.54 2.055 4.77 4.595 0.239 2.665 0.469 6.656 0.469 12.154s-0.23 9.49 -0.47 12.154c-0.228 2.54 -2.224 4.426 -4.769 4.595 -2.83 0.189 -7.143 0.387 -13.138 0.433l-7.907 7.04c-1.29 1.147 -3.33 0.232 -3.33 -1.495v-5.65a189.817 189.817 0 0 1 -7.172 -0.328Z" stroke-width="3"></path><path id="Ellipse 68" stroke="#7b8cc7" stroke-linecap="round" stroke-linejoin="round" d="M20.068 29a3.5 3.5 0 1 0 7 0 3.5 3.5 0 1 0 -7 0" stroke-width="3"></path><path id="Union_2" stroke="#7b8cc7" stroke-linecap="round" stroke-linejoin="round" d="M26.137 8.5c-3.973 0 -7.338 2.36 -8 5 -0.594 2.374 0.792 4.424 3.098 4.378 0.622 -0.012 1.199 -0.29 1.734 -0.606 0.825 -0.49 2.133 -1.247 3.168 -1.772 -2.034 1.125 -5.669 2.797 -5.669 5.267l-0.003 2.229a2.5 2.5 0 0 0 2.5 2.504h1.104c0.858 0 1.615 -0.433 2.065 -1.092 0.52 -0.76 0.944 -1.674 1.747 -2.125 3.032 -1.703 5.257 -3.412 5.257 -6.783 0 -3.5 -2.112 -7 -7 -7Z" stroke-width="3"></path></g></svg>