<svg width="54" height="54" viewBox="0 0 54 54" fill="none" xmlns="http://www.w3.org/2000/svg">
<g id="statistician icon large">
<path id="Intersect" d="M2.84 40.072C3.15765 42.8859 4.41924 45.5092 6.41906 47.5141C8.41887 49.519 11.0389 50.7872 13.852 51.112C18.132 51.592 22.52 52 27 52C31.48 52 35.872 51.592 40.148 51.112C42.9611 50.7872 45.5811 49.519 47.5809 47.5141C49.5808 45.5092 50.8423 42.8859 51.16 40.072C51.616 35.82 52 31.452 52 27C52 22.548 51.616 18.18 51.16 13.924C50.8423 11.1101 49.5808 8.48684 47.5809 6.48194C45.5811 4.47704 42.9611 3.2088 40.148 2.884C35.868 2.412 31.48 2 27 2C22.52 2 18.128 2.408 13.852 2.888C11.0389 3.2128 8.41887 4.48104 6.41906 6.48594C4.41924 8.49084 3.15765 11.1141 2.84 13.928C2.384 18.176 2 22.544 2 27C2 31.456 2.384 35.82 2.84 40.072Z" stroke="#7B8CC7" stroke-width="3.5" stroke-linecap="round" stroke-linejoin="round"/>
<path id="Intersect_2" d="M12.8248 35.6239C12.9608 37.5478 14.5128 39.1038 16.4408 39.1598C18.3808 39.2158 20.3288 39.1438 22.2528 38.9398V33.8758C22.2528 33.2838 22.2288 32.6998 22.1888 32.1238C22.1312 31.1909 21.7295 30.3124 21.0616 29.6585C20.3936 29.0046 19.5068 28.6217 18.5728 28.5839C17.8623 28.5645 17.1514 28.5645 16.4408 28.5839C15.5068 28.6217 14.6201 29.0046 13.9521 29.6585C13.2842 30.3124 12.8825 31.1909 12.8248 32.1238C12.7819 32.7069 12.7592 33.2912 12.7568 33.8758C12.7568 34.4638 12.7848 35.0479 12.8248 35.6239Z" stroke="#7B8CC7" stroke-width="3.5" stroke-linecap="round" stroke-linejoin="round"/>
<path id="Intersect_3" d="M22.248 38.8003C25.3933 39.3042 28.5988 39.3042 31.744 38.8003V30.7403C31.744 29.0883 31.664 27.4683 31.568 25.8963C31.46 24.0163 30.06 22.4163 28.18 22.3283C27.3912 22.2903 26.6009 22.2903 25.812 22.3283C23.932 22.4203 22.532 24.0163 22.424 25.8963C22.332 27.4683 22.248 29.0883 22.248 30.7363V38.8003Z" stroke="#7B8CC7" stroke-width="3.5" stroke-linecap="round" stroke-linejoin="round"/>
<path id="Intersect_4" d="M31.7471 38.62C33.7557 39.1191 35.8326 39.2853 37.8951 39.112C39.6791 38.96 40.9191 37.384 40.9951 35.592C41.1151 32.728 41.2391 29.748 41.2391 26.692C41.2391 23.636 41.1111 20.656 40.9951 17.788C40.9191 16 39.6791 14.412 37.8951 14.264C36.9621 14.1854 36.0241 14.1854 35.0911 14.264C33.3071 14.412 32.0631 16 31.9911 17.788C31.8711 20.656 31.7471 23.636 31.7471 26.692V38.62Z" stroke="#7B8CC7" stroke-width="3.5" stroke-linecap="round" stroke-linejoin="round"/>
</g>
</svg>
